<?xml version="1.0" encoding="UTF-8"?>
<svg xmlns="http://www.w3.org/2000/svg" width="128" height="128" viewBox="0 0 128 128">
  <defs>
    <linearGradient id="shield-fill" x1="0" y1="0" x2="0" y2="1">
      <stop offset="0" stop-color="#62a0ea"/>
      <stop offset="1" stop-color="#1a5fb4"/>
    </linearGradient>
  </defs>

  <!-- Shield shape -->
  <path d="M64 8 L112 28 C112 28 116 72 96 96 C82 112 64 120 64 120 C64 120 46 112 32 96 C12 72 16 28 16 28 Z"
        fill="url(#shield-fill)" stroke="#1a5fb4" stroke-width="2" stroke-linejoin="round"/>

  <!-- Inner highlight on shield -->
  <path d="M64 14 L106 32 C106 32 110 72 92 93 C80 107 64 114 64 114 C64 114 48 107 36 93 C18 72 22 32 22 32 Z"
        fill="none" stroke="#ffffff" stroke-opacity="0.2" stroke-width="1" stroke-linejoin="round"/>

  <!-- Padlock shackle -->
  <path d="M52 64 L52 54 C52 44.059 57.373 36 64 36 C70.627 36 76 44.059 76 54 L76 64"
        fill="none" stroke="#ffffff" stroke-width="5" stroke-linecap="round" stroke-linejoin="round"/>

  <!-- Padlock body -->
  <rect x="46" y="62" width="36" height="28" rx="4" ry="4" fill="#ffffff"/>

  <!-- Keyhole -->
  <circle cx="64" cy="73" r="4.5" fill="#1a5fb4"/>
  <rect x="62" y="75.5" width="4" height="7" rx="1.5" ry="1.5" fill="#1a5fb4"/>
</svg>
